<svg xmlns="http://www.w3.org/2000/svg" width="390" height="844" viewBox="0 0 390 844" role="img" aria-label="ssync — Jobs; design concept, illustrative data"><title>ssync — Jobs; design concept, illustrative data</title><rect x="0" y="0" width="390" height="844" rx="0" fill="#F4F3EE"/><text x="27" y="34" fill="#172137" font-family="-apple-system, BlinkMacSystemFont, Helvetica Neue, Arial, sans-serif" font-size="15" font-weight="600" text-anchor="start">9:41</text><rect x="145" y="14" width="100" height="28" rx="14" fill="#05070B"/><text x="323" y="34" fill="#172137" font-family="-apple-system, BlinkMacSystemFont, Helvetica Neue, Arial, sans-serif" font-size="14" font-weight="600" text-anchor="start">•••</text><rect x="352" y="24" width="22" height="10" rx="3" fill="#172137"/><text x="20" y="104" fill="#172137" font-family="-apple-system, BlinkMacSystemFont, Helvetica Neue, Arial, sans-serif" font-size="36" font-weight="750" text-anchor="start">Jobs</text><g transform="translate(340 76) scale(1.0416666666666667)" fill="none" stroke="#3155D9" stroke-width="1.7" stroke-linecap="round" stroke-linejoin="round"><circle cx="12" cy="12" r="7"/><circle cx="12" cy="12" r="2.5"/><path d="M12 2v3m0 14v3M2 12h3m14 0h3"/></g><text x="20" y="133" fill="#59657B" font-family="-apple-system, BlinkMacSystemFont, Helvetica Neue, Arial, sans-serif" font-size="15" font-weight="400" text-anchor="start">2 hosts · one needs a connection check</text><rect x="20" y="157" width="350" height="77" rx="16" fill="#FFF2D9"/><text x="36" y="186" fill="#865408" font-family="-apple-system, BlinkMacSystemFont, Helvetica Neue, Arial, sans-serif" font-size="17" font-weight="600" text-anchor="start">Atlas is unavailable</text><text x="36" y="212" fill="#865408" font-family="-apple-system, BlinkMacSystemFont, Helvetica Neue, Arial, sans-serif" font-size="13" font-weight="400" text-anchor="start">Showing saved jobs · updated 12 min ago</text><text x="20" y="278" fill="#172137" font-family="-apple-system, BlinkMacSystemFont, Helvetica Neue, Arial, sans-serif" font-size="20" font-weight="650" text-anchor="start">Atlas</text><text x="370" y="278" fill="#59657B" font-family="-apple-system, BlinkMacSystemFont, Helvetica Neue, Arial, sans-serif" font-size="13" font-weight="400" text-anchor="end">Saved data</text><rect x="20" y="298" width="350" height="98" rx="20" fill="white"/><g transform="translate(32 317) scale(0.9166666666666666)" fill="none" stroke="#3155D9" stroke-width="1.7" stroke-linecap="round" stroke-linejoin="round"><circle cx="12" cy="12" r="9"/><path d="m10 8 6 4-6 4Z"/></g><text x="65" y="330" fill="#172137" font-family="-apple-system, BlinkMacSystemFont, Helvetica Neue, Arial, sans-serif" font-size="17" font-weight="600" text-anchor="start">protein-fold-v3</text><text x="65" y="353" fill="#3155D9" font-family="-apple-system, BlinkMacSystemFont, Helvetica Neue, Arial, sans-serif" font-size="13" font-weight="500" text-anchor="start">48192 · Running</text><text x="65" y="376" fill="#59657B" font-family="-apple-system, BlinkMacSystemFont, Helvetica Neue, Arial, sans-serif" font-size="13" font-weight="400" text-anchor="start">Last known state · 2 h 18 m elapsed</text><text x="20" y="442" fill="#172137" font-family="-apple-system, BlinkMacSystemFont, Helvetica Neue, Arial, sans-serif" font-size="20" font-weight="650" text-anchor="start">Boreal</text><text x="370" y="442" fill="#59657B" font-family="-apple-system, BlinkMacSystemFont, Helvetica Neue, Arial, sans-serif" font-size="13" font-weight="400" text-anchor="end">Updated just now</text><rect x="20" y="462" width="350" height="97" rx="20" fill="white"/><g transform="translate(32 482) scale(0.9166666666666666)" fill="none" stroke="#3155D9" stroke-width="1.7" stroke-linecap="round" stroke-linejoin="round"><circle cx="12" cy="12" r="9"/><path d="m10 8 6 4-6 4Z"/></g><text x="65" y="495" fill="#172137" font-family="-apple-system, BlinkMacSystemFont, Helvetica Neue, Arial, sans-serif" font-size="17" font-weight="600" text-anchor="start">eval-baseline</text><text x="65" y="518" fill="#3155D9" font-family="-apple-system, BlinkMacSystemFont, Helvetica Neue, Arial, sans-serif" font-size="13" font-weight="500" text-anchor="start">82013 · Running</text><text x="65" y="541" fill="#59657B" font-family="-apple-system, BlinkMacSystemFont, Helvetica Neue, Arial, sans-serif" font-size="13" font-weight="400" text-anchor="start">12 m elapsed · 8 CPUs</text><rect x="20" y="604" width="350" height="50" rx="14" fill="#EAEDF5"/><text x="195.0" y="635" fill="#3155D9" font-family="-apple-system, BlinkMacSystemFont, Helvetica Neue, Arial, sans-serif" font-size="17" font-weight="600" text-anchor="middle">Retry Atlas</text><text x="195" y="692" fill="#59657B" font-family="-apple-system, BlinkMacSystemFont, Helvetica Neue, Arial, sans-serif" font-size="15" font-weight="400" text-anchor="middle">Other hosts continue to update.</text><rect x="12" y="750" width="366" height="67" rx="32" fill="#FFFEFB" stroke="#DCE1EB" stroke-width="1"/><rect x="20" y="756" width="83" height="55" rx="26" fill="#E9EEFF"/><g transform="translate(50 762) scale(0.9583333333333334)" fill="none" stroke="#3155D9" stroke-width="1.7" stroke-linecap="round" stroke-linejoin="round"><path d="M4 5h16v12H4zM7 20h10M8 9h8M8 13h5"/></g><text x="61" y="800" fill="#3155D9" font-family="-apple-system, BlinkMacSystemFont, Helvetica Neue, Arial, sans-serif" font-size="11" font-weight="600" text-anchor="middle">Jobs</text><g transform="translate(139 762) scale(0.9583333333333334)" fill="none" stroke="#59657B" stroke-width="1.7" stroke-linecap="round" stroke-linejoin="round"><rect x="3" y="4" width="18" height="6" rx="2"/><rect x="3" y="14" width="18" height="6" rx="2"/><path d="M7 7h1m-1 10h1"/></g><text x="150" y="800" fill="#59657B" font-family="-apple-system, BlinkMacSystemFont, Helvetica Neue, Arial, sans-serif" font-size="11" font-weight="600" text-anchor="middle">Hosts</text><g transform="translate(228 762) scale(0.9583333333333334)" fill="none" stroke="#59657B" stroke-width="1.7" stroke-linecap="round" stroke-linejoin="round"><path d="M2 12s4-7 10-7 10 7 10 7-4 7-10 7S2 12 2 12Z"/><circle cx="12" cy="12" r="3"/></g><text x="239" y="800" fill="#59657B" font-family="-apple-system, BlinkMacSystemFont, Helvetica Neue, Arial, sans-serif" font-size="11" font-weight="600" text-anchor="middle">Watchers</text><g transform="translate(317 762) scale(0.9583333333333334)" fill="none" stroke="#59657B" stroke-width="1.7" stroke-linecap="round" stroke-linejoin="round"><path d="m3 10 18-7-7 18-3-8-8-3Zm8 3 10-10"/></g><text x="328" y="800" fill="#59657B" font-family="-apple-system, BlinkMacSystemFont, Helvetica Neue, Arial, sans-serif" font-size="11" font-weight="600" text-anchor="middle">Launch</text><rect x="132" y="830" width="126" height="5" rx="3" fill="#172137"/></svg>
