<svg xmlns="http://www.w3.org/2000/svg" width="390" height="844" viewBox="0 0 390 844" role="img" aria-label="ssync — Host; design concept, illustrative data"><title>ssync — Host; design concept, illustrative data</title><rect x="0" y="0" width="390" height="844" rx="0" fill="#F4F3EE"/><text x="27" y="34" fill="#172137" font-family="-apple-system, BlinkMacSystemFont, Helvetica Neue, Arial, sans-serif" font-size="15" font-weight="600" text-anchor="start">9:41</text><rect x="145" y="14" width="100" height="28" rx="14" fill="#05070B"/><text x="323" y="34" fill="#172137" font-family="-apple-system, BlinkMacSystemFont, Helvetica Neue, Arial, sans-serif" font-size="14" font-weight="600" text-anchor="start">•••</text><rect x="352" y="24" width="22" height="10" rx="3" fill="#172137"/><g transform="translate(18 61) scale(0.9166666666666666)" fill="none" stroke="#3155D9" stroke-width="1.7" stroke-linecap="round" stroke-linejoin="round"><path d="m15 5-7 7 7 7"/></g><text x="42" y="78" fill="#3155D9" font-family="-apple-system, BlinkMacSystemFont, Helvetica Neue, Arial, sans-serif" font-size="17" font-weight="400" text-anchor="start">Hosts</text><text x="195" y="79" fill="#172137" font-family="-apple-system, BlinkMacSystemFont, Helvetica Neue, Arial, sans-serif" font-size="17" font-weight="600" text-anchor="middle">Host</text><g transform="translate(348 60) scale(0.9166666666666666)" fill="none" stroke="#3155D9" stroke-width="1.7" stroke-linecap="round" stroke-linejoin="round"><circle cx="5" cy="12" r="1"/><circle cx="12" cy="12" r="1"/><circle cx="19" cy="12" r="1"/></g><text x="20" y="132" fill="#172137" font-family="-apple-system, BlinkMacSystemFont, Helvetica Neue, Arial, sans-serif" font-size="30" font-weight="700" text-anchor="start">Atlas</text><text x="20" y="161" fill="#59657B" font-family="-apple-system, BlinkMacSystemFont, Helvetica Neue, Arial, sans-serif" font-size="15" font-weight="400" text-anchor="start">2 partitions · capacity updated 40 s ago</text><rect x="20" y="186" width="350" height="87" rx="16" fill="#FFFEFB"/><text x="38" y="216" fill="#59657B" font-family="-apple-system, BlinkMacSystemFont, Helvetica Neue, Arial, sans-serif" font-size="13" font-weight="400" text-anchor="start">Jobs in your scope</text><text x="38" y="250" fill="#3155D9" font-family="-apple-system, BlinkMacSystemFont, Helvetica Neue, Arial, sans-serif" font-size="22" font-weight="650" text-anchor="start">2 running</text><text x="220" y="250" fill="#865408" font-family="-apple-system, BlinkMacSystemFont, Helvetica Neue, Arial, sans-serif" font-size="22" font-weight="650" text-anchor="start">2 pending</text><text x="20" y="315" fill="#172137" font-family="-apple-system, BlinkMacSystemFont, Helvetica Neue, Arial, sans-serif" font-size="20" font-weight="650" text-anchor="start">Partitions</text><text x="370" y="315" fill="#59657B" font-family="-apple-system, BlinkMacSystemFont, Helvetica Neue, Arial, sans-serif" font-size="13" font-weight="400" text-anchor="end">2 reported</text><rect x="20" y="335" width="350" height="175" rx="16" fill="#FFFEFB"/><text x="38" y="369" fill="#172137" font-family="-apple-system, BlinkMacSystemFont, Helvetica Neue, Arial, sans-serif" font-size="21" font-weight="650" text-anchor="start">gpu-a100</text><g transform="translate(337 352) scale(0.75)" fill="none" stroke="#59657B" stroke-width="1.7" stroke-linecap="round" stroke-linejoin="round"><path d="m9 5 7 7-7 7"/></g><text x="38" y="396" fill="#59657B" font-family="-apple-system, BlinkMacSystemFont, Helvetica Neue, Arial, sans-serif" font-size="13" font-weight="400" text-anchor="start">UP · mixed</text><text x="38" y="428" fill="#3155D9" font-family="-apple-system, BlinkMacSystemFont, Helvetica Neue, Arial, sans-serif" font-size="17" font-weight="600" text-anchor="start">24 / 32 GPUs allocated</text><rect x="38" y="446" width="314" height="8" rx="4" fill="#EAEDF5"/><rect x="38" y="446" width="235.5" height="8" rx="4" fill="#3155D9"/><rect x="273.5" y="446" width="78.5" height="8" rx="0" fill="#187153"/><text x="38" y="486" fill="#59657B" font-family="-apple-system, BlinkMacSystemFont, Helvetica Neue, Arial, sans-serif" font-size="13" font-weight="400" text-anchor="start">1 running · 1 pending · user alex</text><rect x="20" y="526" width="350" height="175" rx="16" fill="#FFFEFB"/><text x="38" y="560" fill="#172137" font-family="-apple-system, BlinkMacSystemFont, Helvetica Neue, Arial, sans-serif" font-size="21" font-weight="650" text-anchor="start">compute</text><g transform="translate(337 543) scale(0.75)" fill="none" stroke="#59657B" stroke-width="1.7" stroke-linecap="round" stroke-linejoin="round"><path d="m9 5 7 7-7 7"/></g><text x="38" y="587" fill="#59657B" font-family="-apple-system, BlinkMacSystemFont, Helvetica Neue, Arial, sans-serif" font-size="13" font-weight="400" text-anchor="start">UP · includes drained</text><text x="38" y="619" fill="#3155D9" font-family="-apple-system, BlinkMacSystemFont, Helvetica Neue, Arial, sans-serif" font-size="17" font-weight="600" text-anchor="start">192 / 256 CPUs allocated</text><rect x="38" y="637" width="314" height="8" rx="4" fill="#EAEDF5"/><rect x="38" y="637" width="235.5" height="8" rx="4" fill="#3155D9"/><rect x="273.5" y="637" width="58.875" height="8" rx="0" fill="#187153"/><rect x="332.375" y="637" width="19.625" height="8" rx="4" fill="#865408"/><text x="38" y="677" fill="#59657B" font-family="-apple-system, BlinkMacSystemFont, Helvetica Neue, Arial, sans-serif" font-size="13" font-weight="400" text-anchor="start">1 running · 1 pending · user alex</text><rect x="12" y="750" width="366" height="67" rx="32" fill="#FFFEFB" stroke="#DCE1EB" stroke-width="1"/><g transform="translate(50 762) scale(0.9583333333333334)" fill="none" stroke="#59657B" stroke-width="1.7" stroke-linecap="round" stroke-linejoin="round"><path d="M4 5h16v12H4zM7 20h10M8 9h8M8 13h5"/></g><text x="61" y="800" fill="#59657B" font-family="-apple-system, BlinkMacSystemFont, Helvetica Neue, Arial, sans-serif" font-size="11" font-weight="600" text-anchor="middle">Jobs</text><rect x="109" y="756" width="83" height="55" rx="26" fill="#E9EEFF"/><g transform="translate(139 762) scale(0.9583333333333334)" fill="none" stroke="#3155D9" stroke-width="1.7" stroke-linecap="round" stroke-linejoin="round"><rect x="3" y="4" width="18" height="6" rx="2"/><rect x="3" y="14" width="18" height="6" rx="2"/><path d="M7 7h1m-1 10h1"/></g><text x="150" y="800" fill="#3155D9" font-family="-apple-system, BlinkMacSystemFont, Helvetica Neue, Arial, sans-serif" font-size="11" font-weight="600" text-anchor="middle">Hosts</text><g transform="translate(228 762) scale(0.9583333333333334)" fill="none" stroke="#59657B" stroke-width="1.7" stroke-linecap="round" stroke-linejoin="round"><path d="M2 12s4-7 10-7 10 7 10 7-4 7-10 7S2 12 2 12Z"/><circle cx="12" cy="12" r="3"/></g><text x="239" y="800" fill="#59657B" font-family="-apple-system, BlinkMacSystemFont, Helvetica Neue, Arial, sans-serif" font-size="11" font-weight="600" text-anchor="middle">Watchers</text><g transform="translate(317 762) scale(0.9583333333333334)" fill="none" stroke="#59657B" stroke-width="1.7" stroke-linecap="round" stroke-linejoin="round"><path d="m3 10 18-7-7 18-3-8-8-3Zm8 3 10-10"/></g><text x="328" y="800" fill="#59657B" font-family="-apple-system, BlinkMacSystemFont, Helvetica Neue, Arial, sans-serif" font-size="11" font-weight="600" text-anchor="middle">Launch</text><rect x="132" y="830" width="126" height="5" rx="3" fill="#172137"/></svg>
